In this swashbuckling, high-seas adventure, Walt Disney has vividly brought to life Robert Louis Stevenson's thrilling tale of buccaneers and buried gold - presented for the first time in it's original, uncut, theatrical version! Authentic locales and musket-roaring action set the stage for the stouthearted heroics of young Jim Hawkins (Bobby Driscoll) and the skullduggery of that wily, one-legged pirate, Long John Silver.

Format : MPEG-4
Format profile : Base Media / Version 2
Codec ID : mp42
File size : 799 MiB
Duration : 1h 31mn
Overall bit rate : 1 216 Kbps
Encoded date : UTC 2009-07-29 17:38:20
Tagged date : UTC 2009-07-29 21:39:22
Writing application : HandBrake 0.9.3 2008112300

Video
ID : 1
Format : AVC
Format/Info : Advanced Video Codec
Format profile : Main@L4.0
Format settings, CABAC : Yes
Format settings, ReFrames : 3 frames
Codec ID : avc1
Codec ID/Info : Advanced Video Coding
Duration : 1h 31mn
Bit rate mode : Variable
Bit rate : 1 052 Kbps
Width : 720 pixels
Height : 576 pixels
Display aspect ratio : 4/3
Frame rate mode : Variable
Frame rate : 25.000 fps
Minimum frame rate : 12.500 fps
Maximum frame rate : 25.000 fps
Standard : PAL
Resolution : 24 bits
Colorimetry : 4:2:0
Scan type : Progressive
Bits/(Pixel*Frame) : 0.101
Stream size : 692 MiB (87%)
Writing library : x264 core 65


Audio
ID : 2
Format : AAC
Format/Info : Advanced Audio Codec
Format version : Version 4
Format profile : LC
Format settings, SBR : No
Codec ID : 40
Duration : 1h 31mn
Bit rate mode : Variable
Bit rate : 160 Kbps
Maximum bit rate : 201 Kbps
Channel(s) : 2 channels
Channel positions : L R
Sampling rate : 48.0 KHz
Resolution : 16 bits
Stream size : 105 MiB (13%)
Language : English
Encoded date : UTC 2009-07-29 17:38:20
Tagged date : UTC 2009-07-29 21:39:17